<?xml version="1.0" encoding="UTF-8"?>
<svg version="1.1" xmlns="http://www.w3.org/2000/svg" width="1024" height="1024">
<path d="M0 0 C0.02505615 1.08829102 0.0501123 2.17658203 0.07592773 3.29785156 C0.1711166 7.3907159 0.27105055 11.48345372 0.37231445 15.57617188 C0.41524697 17.33720918 0.45694497 19.09827708 0.49731445 20.859375 C0.79739671 34.24294229 0.79739671 34.24294229 1.89868164 47.58105469 C2.00893523 50.21332601 1.61446369 52.44616209 1 55 C1.825 54.2575 2.65 53.515 3.5 52.75 C10.26569086 47.98388579 19.35575868 45.72621285 27.578125 46.2109375 C38.61915285 48.43484121 47.48829651 53.77942785 54 63 C60.30127964 73.33093809 61.86884425 85.38845066 59.3125 97.16796875 C56.00130129 106.94980161 50.48299801 115.75515654 41.25 120.625 C29.86849777 126.04079535 20.91000057 125.91728279 9.015625 122.16796875 C6.10145534 121.03929423 3.61961685 119.69304867 1 118 C0.67 119.98 0.34 121.96 0 124 C-4.14581887 124.02886751 -8.29161216 124.04675327 -12.4375 124.0625 C-14.21350586 124.07506836 -14.21350586 124.07506836 -16.02539062 124.08789062 C-17.15009766 124.09111328 -18.27480469 124.09433594 -19.43359375 124.09765625 C-20.99678345 124.10551147 -20.99678345 124.10551147 -22.59155273 124.11352539 C-25 124 -25 124 -26 123 C-26.09804422 121.44836477 -26.1263186 119.89226927 -26.12698364 118.33753967 C-26.12980347 117.32935684 -26.13262329 116.32117401 -26.13552856 115.28244019 C-26.13350433 114.16708893 -26.1314801 113.05173767 -26.12939453 111.90258789 C-26.13114685 110.73522598 -26.13289917 109.56786407 -26.13470459 108.36512756 C-26.13836284 105.15439724 -26.1374895 101.94370785 -26.1343255 98.73297811 C-26.13180098 95.37866073 -26.13413975 92.02434617 -26.13571167 88.67002869 C-26.13753335 83.03497829 -26.13512737 77.39994099 -26.13037109 71.76489258 C-26.12493111 65.24440144 -26.12668922 58.72394159 -26.1321975 52.20345122 C-26.13673183 46.61278517 -26.13737753 41.02212856 -26.13475883 35.43146127 C-26.13319748 32.08910417 -26.13299837 28.74676177 -26.13629532 25.40440559 C-26.13882327 21.6785175 -26.13497905 17.95269018 -26.12939453 14.22680664 C-26.13141876 13.11347961 -26.13344299 12.00015259 -26.13552856 10.85308838 C-26.13270874 9.84208572 -26.12988892 8.83108307 -26.12698364 7.78944397 C-26.12660662 6.90766511 -26.12622959 6.02588625 -26.12584114 5.11738682 C-26 3 -26 3 -25 1 C-21.02084729 0.83299906 -17.04167558 0.66645506 -13.0625 0.5 C-11.35803711 0.42845703 -11.35803711 0.42845703 -9.61914062 0.35546875 C-7.99975586 0.28779297 -7.99975586 0.28779297 -6.34765625 0.21875 C-5.34742432 0.17685547 -4.34719238 0.13496094 -3.31665039 0.09179688 C-1 0 -1 0 0 0 Z M3.6875 75.5625 C0.25296318 80.52349763 0.4055119 85.0802382 1 91 C3.29796944 95.86108919 6.13891081 98.70203056 11 101 C17.09952726 101.80902821 22.9380464 101.82733077 28 98 C31.69768268 93.23193549 32.66242536 89.44760917 32.37890625 83.4296875 C31.67234285 78.89894075 30.02740231 75.77003777 26.4921875 72.68359375 C18.90380184 67.61878751 9.77511104 68.81676885 3.6875 75.5625 Z " fill="#010101" transform="translate(593,418)"/>
<path d="M0 0 C12.87 0.495 12.87 0.495 26 1 C26.02254723 16.88955445 26.04097929 32.77909629 26.05181217 48.66866207 C26.05697508 56.04595956 26.06401767 63.42324643 26.07543945 70.80053711 C26.08538646 77.2283218 26.09185347 83.6560988 26.09408849 90.08389097 C26.09539557 93.48939278 26.09848125 96.89487258 26.10573006 100.30036736 C26.11293606 104.09601041 26.11399113 107.89160712 26.11352539 111.68725586 C26.11712067 112.82445068 26.12071594 113.96164551 26.12442017 115.13330078 C26.1230455 116.16120224 26.12167084 117.1891037 26.12025452 118.24815369 C26.12117631 119.14690185 26.1220981 120.04565001 26.12304783 120.97163296 C26 123 26 123 25 124 C23.21928754 124.08726223 21.4351686 124.10699041 19.65234375 124.09765625 C18.57275391 124.09443359 17.49316406 124.09121094 16.38085938 124.08789062 C15.24455078 124.07951172 14.10824219 124.07113281 12.9375 124.0625 C11.79732422 124.05798828 10.65714844 124.05347656 9.48242188 124.04882812 C6.65489649 124.03699747 3.8274736 124.0205141 1 124 C0.34 122.02 -0.32 120.04 -1 118 C-1.74765625 118.42152344 -2.4953125 118.84304688 -3.265625 119.27734375 C-4.25046875 119.82519531 -5.2353125 120.37304688 -6.25 120.9375 C-7.22453125 121.48277344 -8.1990625 122.02804687 -9.203125 122.58984375 C-17.00404407 126.5229887 -25.46417302 125.67944396 -33.6875 123.375 C-43.97033811 119.90271462 -51.48718954 113.2526697 -56.375 103.5625 C-56.91125 102.386875 -57.4475 101.21125 -58 100 C-58.66 100 -59.32 100 -60 100 C-60.40158315 85.64712071 -59.51307397 74.02614794 -53 61 C-44.66790622 52.76451021 -34.82888273 47.06850025 -22.875 46.6875 C-14.1411343 47.39184401 -9.04042132 49.53309926 -1 54 C-0.67 36.18 -0.34 18.36 0 0 Z M-30.4375 76.5625 C-32.6503958 81.43087077 -32.65301091 85.73560342 -32 91 C-31.04331967 93.92902303 -31.04331967 93.92902303 -29 96 C-28.21625 96.928125 -27.4325 97.85625 -26.625 98.8125 C-22.60855087 102.03783036 -17.94405989 101.4685886 -13.0234375 101.37109375 C-10.15205348 101.0186629 -8.39685817 100.58102617 -6 99 C-5.67 98.34 -5.34 97.68 -5 97 C-4.34 97 -3.68 97 -3 97 C0.34838006 91.69839824 0.71383093 87.08739153 0 81 C-1.7440759 75.7677723 -4.2410836 73.67689047 -9 71 C-17.59417719 68.13527427 -24.22597268 70.03243281 -30.4375 76.5625 Z " fill="#010101" transform="translate(526,418)"/>
<path d="M0 0 C3.48732574 2.76016718 4.74485101 6.66087811 6.35546875 10.66015625 C6.66196854 11.40583359 6.96846832 12.15151093 7.28425598 12.91978455 C7.92899729 14.49267096 8.57008839 16.06705793 9.20776367 17.64282227 C10.18663907 20.06037375 11.17729332 22.472833 12.16992188 24.88476562 C12.79496782 26.41377776 13.41934018 27.94306547 14.04296875 29.47265625 C14.48820137 30.55861839 14.48820137 30.55861839 14.94242859 31.66651917 C17 36.76750904 17 36.76750904 17 39 C20.03619016 37.48190492 20.50633197 35.1150966 21.8984375 32.05859375 C22.17466949 31.45749283 22.45090149 30.85639191 22.73550415 30.23707581 C23.62131749 28.30655584 24.49843913 26.37223629 25.375 24.4375 C26.24610452 22.52857124 27.11901483 20.62048416 27.99307251 18.71290588 C28.79330101 16.96426217 29.58892 15.21351118 30.38427734 13.46264648 C32.18339952 9.60695747 34.0972032 5.80559361 36 2 C45.9 2 55.8 2 66 2 C61.62267135 10.95362679 57.00114637 19.7252378 52.19848633 28.45727539 C46.36175574 39.10220223 40.71066082 49.844782 35.05541992 60.58691406 C34.48769867 61.66346504 34.48769867 61.66346504 33.9085083 62.76176453 C33.19701369 64.11105181 32.48668838 65.4609566 31.777771 66.81159973 C30.86246477 68.54670907 29.93175688 70.27366892 29 72 C28.50701416 72.9595459 28.01402832 73.9190918 27.50610352 74.90771484 C27.00908936 75.59816895 26.5120752 76.28862305 26 77 C22.94386796 77.49203726 20.54087549 77.65641686 17.5 77.5625 C16.72785156 77.57345703 15.95570313 77.58441406 15.16015625 77.59570312 C12.90625 77.56640625 12.90625 77.56640625 9 77 C5.95730116 73.87632225 4.5227395 69.8786453 2.8984375 65.8984375 C2.61650543 65.22076324 2.33457336 64.54308899 2.0440979 63.84487915 C1.14904914 61.69042412 0.26182741 59.53285042 -0.625 57.375 C-1.5206838 55.21075116 -2.41793492 53.0471579 -3.31552124 50.88369751 C-3.87236223 49.53988931 -4.42776971 48.19548602 -4.9815979 46.85043335 C-6.40792606 43.38801889 -6.40792606 43.38801889 -8 40 C-8.41362793 41.01425049 -8.82725586 42.02850098 -9.25341797 43.07348633 C-10.78947979 46.83754676 -12.32987452 50.59982111 -13.87158203 54.36157227 C-14.53813022 55.98966892 -15.2035037 57.61824703 -15.86767578 59.24731445 C-16.82275618 61.58933148 -17.78205309 63.92958241 -18.7421875 66.26953125 C-19.03809784 66.99775589 -19.33400818 67.72598053 -19.6388855 68.47627258 C-20.90023675 71.54018578 -22.1553489 74.23302335 -24 77 C-29.22296552 77.97597883 -34.81438095 78.41450656 -40 77 C-44.27318818 73.46490796 -46.27235718 69.18292846 -48 64 C-48.95601809 61.96811316 -49.93814533 59.94842639 -50.9375 57.9375 C-51.46214844 56.87402344 -51.98679687 55.81054688 -52.52734375 54.71484375 C-53.86078349 51.94962131 -53.86078349 51.94962131 -56 50 C-56.68307565 48.339991 -57.34624446 46.67177328 -58 45 C-59.1736269 42.65744001 -60.36480464 40.33473095 -61.58984375 38.01953125 C-61.93503555 37.36546799 -62.28022736 36.71140472 -62.63587952 36.03752136 C-63.36315084 34.66267786 -64.09189179 33.28861087 -64.82202148 31.9152832 C-65.93748593 29.81252653 -67.04202701 27.70425725 -68.14648438 25.59570312 C-68.85610408 24.25745873 -69.56636844 22.91955594 -70.27734375 21.58203125 C-70.60556625 20.95182571 -70.93378876 20.32162018 -71.2719574 19.6723175 C-72.95218399 16.54203938 -73.97906642 15.01395572 -77 13 C-77 12.01 -77 11.02 -77 10 C-77.86183284 7.91402819 -77.86183284 7.91402819 -79 5.8125 C-79.37125 5.09707031 -79.7425 4.38164062 -80.125 3.64453125 C-80.41375 3.10183594 -80.7025 2.55914062 -81 2 C-78.25475448 0.62737724 -76.03780705 0.8703119 -72.96875 0.8671875 C-71.76605469 0.86589844 -70.56335938 0.86460937 -69.32421875 0.86328125 C-68.06222656 0.86714844 -66.80023438 0.87101562 -65.5 0.875 C-63.60701172 0.86919922 -63.60701172 0.86919922 -61.67578125 0.86328125 C-60.47308594 0.86457031 -59.27039063 0.86585938 -58.03125 0.8671875 C-56.92330078 0.86831543 -55.81535156 0.86944336 -54.67382812 0.87060547 C-52 1 -52 1 -50 2 C-48.95186839 4.10446486 -47.98912525 6.25166987 -47.06640625 8.4140625 C-46.78780258 9.06192719 -46.50919891 9.70979187 -46.22215271 10.37728882 C-45.32939033 12.45726296 -44.44585058 14.54101374 -43.5625 16.625 C-42.97130738 18.00676911 -42.37951733 19.38828276 -41.78710938 20.76953125 C-40.18450292 24.51009406 -38.59242705 28.25509192 -37 32 C-36.00155448 34.33400358 -35.00097119 36.66707779 -34 39 C-30.38921637 32.33157407 -27.73407778 25.58116874 -25.265625 18.41796875 C-23.79191584 14.43804433 -22.00403905 10.73228871 -20.015625 6.98828125 C-18.87792049 4.88365564 -18.87792049 4.88365564 -18 2 C-12.06 2 -6.12 2 0 2 C0 1.34 0 0.68 0 0 Z " fill="#010101" transform="translate(320,465)"/>
<path d="M0 0 C9.26812408 7.83091995 12.12535336 16.61582547 13.765625 28.42578125 C13.96484375 31.66015625 13.96484375 31.66015625 12.96484375 36.66015625 C-12.28015625 37.15515625 -12.28015625 37.15515625 -38.03515625 37.66015625 C-35.03357825 45.4608566 -35.03357825 45.4608566 -30.78515625 47.59765625 C-26.79449293 48.72834419 -23.15987529 49.29833879 -19.03515625 49.66015625 C-18.54015625 48.67015625 -18.54015625 48.67015625 -18.03515625 47.66015625 C-17.29265625 47.39203125 -16.55015625 47.12390625 -15.78515625 46.84765625 C-12.81539596 45.7902258 -12.81539596 45.7902258 -10.59765625 42.97265625 C-8.03515625 40.66015625 -8.03515625 40.66015625 -5.3359375 40.79296875 C-1.49890944 41.80104003 1.85070097 43.38338996 5.33984375 45.22265625 C5.98050781 45.55201172 6.62117187 45.88136719 7.28125 46.22070312 C8.84623007 47.02655107 10.40608396 47.84234118 11.96484375 48.66015625 C8.53650501 57.4378856 4.25644684 62.05619335 -4.03515625 66.66015625 C-13.33165379 70.56703876 -24.79125136 73.58963051 -34.72265625 70.53515625 C-36.17378217 69.94248028 -37.61141486 69.31589377 -39.03515625 68.66015625 C-40.26878906 68.14775391 -40.26878906 68.14775391 -41.52734375 67.625 C-51.76946634 63.03316692 -57.92193814 56.0347914 -62.03515625 45.66015625 C-66.35667579 33.91738849 -63.70900597 22.83623671 -59.1953125 11.5625 C-55.34760604 3.77843025 -47.12129784 -2.46812991 -39.03515625 -5.33984375 C-25.75663805 -9.14620646 -11.39283643 -8.38496279 0 0 Z M-34.03515625 13.66015625 C-36.31250635 16.47525618 -36.31250635 16.47525618 -36.03515625 19.66015625 C-28.11515625 19.66015625 -20.19515625 19.66015625 -12.03515625 19.66015625 C-13.02515625 18.01015625 -14.01515625 16.36015625 -15.03515625 14.66015625 C-16.02515625 14.66015625 -17.01515625 14.66015625 -18.03515625 14.66015625 C-17.70515625 14.00015625 -17.37515625 13.34015625 -17.03515625 12.66015625 C-23.4211315 9.65499143 -28.00528658 9.96000895 -34.03515625 13.66015625 Z " fill="#020202" transform="translate(723.03515625,472.33984375)"/>
<path d="M0 0 C8.97458597 6.86801113 13.37594691 15.66279232 15.1171875 26.6484375 C15.62786267 30.89576028 15.74238623 33.71795509 14.6875 37.9375 C-2.1425 37.9375 -18.9725 37.9375 -36.3125 37.9375 C-32.72161381 45.95683092 -32.72161381 45.95683092 -26.38671875 49.31640625 C-20.91525188 50.95475509 -16.3044381 49.97770411 -11.14453125 47.9453125 C-8.9972489 46.90187375 -8.9972489 46.90187375 -6.875 44.125 C-4.3125 41.9375 -4.3125 41.9375 -2.04296875 41.9921875 C0.32188207 42.47633019 2.46723719 42.98792479 4.6875 43.9375 C5.0175 44.5975 5.3475 45.2575 5.6875 45.9375 C7.56763106 47.05974855 7.56763106 47.05974855 9.75 48.0625 C10.48347656 48.41570313 11.21695313 48.76890625 11.97265625 49.1328125 C12.53855469 49.39835938 13.10445312 49.66390625 13.6875 49.9375 C11.47951169 57.78812511 4.76720965 63.53629471 -1.9453125 67.68359375 C-11.65928245 72.82911249 -22.94874269 73.61613401 -33.5625 70.8125 C-43.59171083 67.2718098 -51.70557494 61.60796921 -56.81640625 52.15625 C-61.90036367 41.37999838 -63.36500008 29.81175949 -59.34375 18.34375 C-54.82827829 7.80764935 -48.74242118 1.01246716 -38.0625 -3.4375 C-25.60284058 -8.12005174 -11.30577151 -7.2631017 0 0 Z M-33.25 16.9375 C-33.600625 17.5975 -33.95125 18.2575 -34.3125 18.9375 C-33.9825 19.9275 -33.6525 20.9175 -33.3125 21.9375 C-26.0525 21.9375 -18.7925 21.9375 -11.3125 21.9375 C-10.9825 20.9475 -10.6525 19.9575 -10.3125 18.9375 C-14.17271504 14.74640938 -17.04372983 12.3565731 -22.75 11.625 C-27.07292016 12.15218539 -30.22988738 13.81996439 -33.25 16.9375 Z " fill="#020202" transform="translate(804.3125,471.0625)"/>
<path d="M0 0 C0.33 0.99 0.66 1.98 1 3 C9.25 3 17.5 3 26 3 C26.15297387 18.88951086 26.30179911 34.7790429 26.4429636 50.66866207 C26.50863868 58.04598208 26.57620865 65.42327575 26.64819336 72.80053711 C26.71090836 79.22829097 26.77011509 85.65606578 26.82505554 92.08389097 C26.85428747 95.4894142 26.8853123 98.89490037 26.92053413 102.30036736 C26.95891064 106.09597256 26.99108599 109.89158149 27.02172852 113.68725586 C27.03467453 114.82445068 27.04762054 115.96164551 27.06095886 117.13330078 C27.06799835 118.16120224 27.07503784 119.1891037 27.08229065 120.24815369 C27.09058679 121.14690185 27.09888292 122.04565001 27.10743046 122.97163296 C27 125 27 125 26 126 C24.08541718 126.09971786 22.16717683 126.13080589 20.25 126.1328125 C19.0846875 126.13410156 17.919375 126.13539063 16.71875 126.13671875 C15.4915625 126.13285156 14.264375 126.12898437 13 126.125 C11.15921875 126.13080078 11.15921875 126.13080078 9.28125 126.13671875 C8.1159375 126.13542969 6.950625 126.13414062 5.75 126.1328125 C4.67234375 126.13168457 3.5946875 126.13055664 2.484375 126.12939453 C0 126 0 126 -1 125 C-1.09810281 123.42526532 -1.12631888 121.84612844 -1.12698364 120.26834106 C-1.12980347 119.24477509 -1.13262329 118.22120911 -1.13552856 117.16662598 C-1.13350433 116.03414429 -1.1314801 114.9016626 -1.12939453 113.73486328 C-1.13114685 112.54960052 -1.13289917 111.36433777 -1.13470459 110.14315796 C-1.13836309 106.88277551 -1.1374892 103.62243336 -1.1343255 100.36205149 C-1.13180062 96.95481688 -1.13413991 93.54758505 -1.13571167 90.14035034 C-1.13753348 84.41533929 -1.13512727 78.69034113 -1.13037109 72.96533203 C-1.12493364 66.34375033 -1.12668732 59.72219943 -1.1321975 53.10061848 C-1.13673449 47.42161486 -1.13737614 41.74262053 -1.13475883 36.06361568 C-1.13319862 32.66924782 -1.1329952 29.27489443 -1.13629532 25.8805275 C-1.13882625 22.09497222 -1.13497468 18.3094766 -1.12939453 14.52392578 C-1.13141876 13.39549255 -1.13344299 12.26705933 -1.13552856 11.10443115 C-1.13270874 10.07522552 -1.12988892 9.0460199 -1.12698364 7.98562622 C-1.12660662 7.09002047 -1.12622959 6.19441471 -1.12584114 5.27166939 C-1 3 -1 3 0 0 Z " fill="#020202" transform="translate(431,416)"/>
<path d="M0 0 C9.24 0 18.48 0 28 0 C28.02255209 9.63113018 28.0409157 19.26224295 28.05181217 28.89339352 C28.05704074 33.36505549 28.06413789 37.83669853 28.07543945 42.30834961 C28.08626929 46.62011973 28.09227704 50.93187159 28.09487724 55.24365425 C28.09673132 56.89236298 28.1003516 58.54107066 28.10573006 60.18977165 C28.11294178 62.49103872 28.11399089 64.7922294 28.11352539 67.09350586 C28.115746 68.4058873 28.11796661 69.71826874 28.12025452 71.07041931 C28 74 28 74 27 75 C25.07332493 75.08748207 23.14348139 75.10697334 21.21484375 75.09765625 C19.46010742 75.09282227 19.46010742 75.09282227 17.66992188 75.08789062 C16.43822266 75.07951172 15.20652344 75.07113281 13.9375 75.0625 C12.08415039 75.05573242 12.08415039 75.05573242 10.19335938 75.04882812 C7.12885883 75.03699608 4.06445279 75.02051173 1 75 C0.03136709 70.94606301 -0.12102571 67.16926957 -0.11352539 63.0065918 C-0.11374443 61.98137169 -0.11374443 61.98137169 -0.1139679 60.93544006 C-0.11327462 58.68999999 -0.10550974 56.44464423 -0.09765625 54.19921875 C-0.09578999 52.63694809 -0.09436707 51.07467685 -0.09336853 49.5124054 C-0.08955972 45.41069916 -0.07974346 41.30902861 -0.06866455 37.20733643 C-0.0584152 33.01778649 -0.05386337 28.82823075 -0.04882812 24.63867188 C-0.03811967 16.42576309 -0.02053617 8.2128901 0 0 Z " fill="#030303" transform="translate(388,467)"/>
<path d="M0 0 C4.39629767 3.98733975 6.35111399 8.08279792 7.1875 13.9375 C6.32727427 19.95908014 4.41709797 24.06088121 -0.375 27.875 C-4.91752987 30.29123929 -8.18664176 30.78501581 -13.3125 30.4375 C-18.92866103 28.48903597 -21.7261525 24.92043437 -25.3125 20.4375 C-25.9725 19.7775 -26.6325 19.1175 -27.3125 18.4375 C-26.6525 18.4375 -25.9925 18.4375 -25.3125 18.4375 C-25.3125 17.7775 -25.3125 17.1175 -25.3125 16.4375 C-25.9725 16.1075 -26.6325 15.7775 -27.3125 15.4375 C-24.76512732 6.88132469 -22.72395584 2.65512239 -15 -1.9375 C-9.63199291 -3.18587374 -4.94149724 -2.33089492 0 0 Z " fill="#030303" transform="translate(412.3125,424.5625)"/>
<path d="M0 0 C4.29743932 4.29743932 5.9800232 8.06693435 6.1875 14.1875 C5.12466034 20.02181131 2.45759395 23.39556035 -2.09375 27.05859375 C-5.90011392 29.55868278 -9.38680796 29.55026164 -13.8125 29.1875 C-18.43766074 27.75508081 -21.23932863 25.88963492 -24.3125 22.125 C-26.60724102 17.37160788 -26.57357013 12.32860638 -25.8125 7.1875 C-23.17699224 1.61238742 -19.2109689 -1.56043251 -13.4375 -3.6875 C-8.39278851 -3.92772436 -4.2334381 -2.72821567 0 0 Z " fill="#040404" transform="translate(857.8125,512.8125)"/>
<path d="M0 0 C1.98 0 3.96 0 6 0 C6 0.33 6 0.66 6 1 C4.02 1 2.04 1 0 1 C0 0.67 0 0.34 0 0 Z " fill="#222121" transform="translate(800,510)"/>
<path d="M0 0 C1.65 0 3.3 0 5 0 C5 0.33 5 0.66 5 1 C3.35 1 1.7 1 0 1 C0 0.67 0 0.34 0 0 Z " fill="#1A1A19" transform="translate(696,510)"/>
<path d="M0 0 C1.65 0 3.3 0 5 0 C5 0.33 5 0.66 5 1 C3.35 1 1.7 1 0 1 C0 0.67 0 0.34 0 0 Z " fill="#1A1B19" transform="translate(688,510)"/>
<path d="M0 0 C0.99 0.33 1.98 0.66 3 1 C2.01 1.33 1.02 1.66 0 2 C0 1.34 0 0.68 0 0 Z " fill="#2A2B2B" transform="translate(680,466)"/>
<path d="M0 0 C0.66 0.66 1.32 1.32 2 2 C1.01 1.67 0.02 1.34 -1 1 C-0.67 0.67 -0.34 0.34 0 0 Z " fill="#1D1D1D" transform="translate(413,464)"/>
<path d="M0 0 C3 1 3 1 3 1 Z " fill="#252425" transform="translate(725,535)"/>
<path d="M0 0 C3 1 3 1 3 1 Z " fill="#1C1D1C" transform="translate(730,510)"/>
<path d="M0 0 C0.66 0 1.32 0 2 0 C1.67 0.66 1.34 1.32 1 2 C0.67 1.34 0.34 0.68 0 0 Z " fill="#1B1B1A" transform="translate(656,499)"/>
<path d="M0 0 C3 1 3 1 3 1 Z " fill="#212221" transform="translate(496,464)"/>
<path d="M0 0 C2 1 2 1 2 1 Z " fill="#232221" transform="translate(627,542)"/>
<path d="" fill="#222121" transform="translate(0,0)"/>
<path d="" fill="#1F211F" transform="translate(0,0)"/>
<path d="" fill="#1E1E1D" transform="translate(0,0)"/>
<path d="" fill="#1C1C1C" transform="translate(0,0)"/>
<path d="" fill="#181919" transform="translate(0,0)"/>
<path d="" fill="#1C1C1D" transform="translate(0,0)"/>
<path d="M0 0 C2 1 2 1 2 1 Z " fill="#2D2E2E" transform="translate(816,510)"/>
<path d="M0 0 C2 1 2 1 2 1 Z " fill="#222322" transform="translate(809,510)"/>
<path d="M0 0 C2 1 2 1 2 1 Z " fill="#1B1D1C" transform="translate(777,510)"/>
<path d="M0 0 C2 1 2 1 2 1 Z " fill="#1A1B1A" transform="translate(712,510)"/>
<path d="" fill="#1B1B1C" transform="translate(0,0)"/>
<path d="" fill="#1B1D1C" transform="translate(0,0)"/>
<path d="M0 0 C2 1 2 1 2 1 Z " fill="#1A1817" transform="translate(464,498)"/>
<path d="M0 0 C2 1 2 1 2 1 Z " fill="#2C2F2B" transform="translate(250,491)"/>
<path d="M0 0 C2 1 2 1 2 1 Z " fill="#252525" transform="translate(789,487)"/>
<path d="M0 0 C2 1 2 1 2 1 Z " fill="#211F1F" transform="translate(773,487)"/>
<path d="M0 0 C2 1 2 1 2 1 Z " fill="#1D1F1C" transform="translate(691,486)"/>
<path d="" fill="#373835" transform="translate(0,0)"/>
<path d="M0 0 C2 1 2 1 2 1 Z " fill="#1D1E1F" transform="translate(602,466)"/>
<path d="" fill="#1E1D1D" transform="translate(0,0)"/>
<path d="M0 0 C2 1 2 1 2 1 Z " fill="#212222" transform="translate(608,464)"/>
<path d="" fill="#4B4C4E" transform="translate(0,0)"/>
<path d="" fill="#4B4E4C" transform="translate(0,0)"/>
<path d="" fill="#4D4D4D" transform="translate(0,0)"/>
<path d="" fill="#272626" transform="translate(0,0)"/>
<path d="" fill="#262726" transform="translate(0,0)"/>
<path d="" fill="#222221" transform="translate(0,0)"/>
<path d="" fill="#1C1D1E" transform="translate(0,0)"/>
<path d="" fill="#222021" transform="translate(0,0)"/>
<path d="" fill="#242424" transform="translate(0,0)"/>
<path d="" fill="#2A2828" transform="translate(0,0)"/>
<path d="" fill="#211E21" transform="translate(0,0)"/>
<path d="" fill="#494949" transform="translate(0,0)"/>
<path d="" fill="#1F1F1F" transform="translate(0,0)"/>
<path d="" fill="#201E20" transform="translate(0,0)"/>
<path d="" fill="#1D201D" transform="translate(0,0)"/>
<path d="" fill="#212121" transform="translate(0,0)"/>
<path d="" fill="#232222" transform="translate(0,0)"/>
<path d="" fill="#282726" transform="translate(0,0)"/>
<path d="" fill="#2B2C2C" transform="translate(0,0)"/>
<path d="" fill="#262928" transform="translate(0,0)"/>
<path d="" fill="#262628" transform="translate(0,0)"/>
<path d="" fill="#2E2E2D" transform="translate(0,0)"/>
<path d="" fill="#37393A" transform="translate(0,0)"/>
<path d="" fill="#212121" transform="translate(0,0)"/>
<path d="" fill="#2E2F2F" transform="translate(0,0)"/>
<path d="" fill="#1C1F1D" transform="translate(0,0)"/>
<path d="" fill="#1B1B1B" transform="translate(0,0)"/>
<path d="" fill="#212020" transform="translate(0,0)"/>
<path d="" fill="#1B1C1A" transform="translate(0,0)"/>
<path d="" fill="#1D1D1F" transform="translate(0,0)"/>
<path d="" fill="#2F2D2D" transform="translate(0,0)"/>
<path d="" fill="#1C1C1A" transform="translate(0,0)"/>
<path d="" fill="#222323" transform="translate(0,0)"/>
<path d="" fill="#202123" transform="translate(0,0)"/>
<path d="" fill="#575958" transform="translate(0,0)"/>
<path d="" fill="#1D1E1C" transform="translate(0,0)"/>
<path d="" fill="#1D201E" transform="translate(0,0)"/>
<path d="" fill="#555555" transform="translate(0,0)"/>
<path d="" fill="#333434" transform="translate(0,0)"/>
<path d="" fill="#1E1E19" transform="translate(0,0)"/>
<path d="" fill="#1F1F1E" transform="translate(0,0)"/>
<path d="" fill="#1B1C19" transform="translate(0,0)"/>
<path d="" fill="#21201E" transform="translate(0,0)"/>
<path d="" fill="#1B1A1C" transform="translate(0,0)"/>
<path d="" fill="#1C1B1D" transform="translate(0,0)"/>
<path d="" fill="#1B1C1C" transform="translate(0,0)"/>
<path d="" fill="#1D1D1F" transform="translate(0,0)"/>
<path d="" fill="#1B1D1C" transform="translate(0,0)"/>
<path d="" fill="#1D191B" transform="translate(0,0)"/>
<path d="" fill="#1F1E1C" transform="translate(0,0)"/>
<path d="" fill="#1F1E1D" transform="translate(0,0)"/>
<path d="" fill="#1E1F1D" transform="translate(0,0)"/>
<path d="" fill="#1D1D1E" transform="translate(0,0)"/>
<path d="" fill="#1C1E1C" transform="translate(0,0)"/>
<path d="" fill="#1B1A1A" transform="translate(0,0)"/>
<path d="" fill="#1B1A19" transform="translate(0,0)"/>
<path d="" fill="#1B1A1A" transform="translate(0,0)"/>
<path d="" fill="#1B1B19" transform="translate(0,0)"/>
<path d="" fill="#454645" transform="translate(0,0)"/>
<path d="" fill="#50524F" transform="translate(0,0)"/>
<path d="" fill="#1C1C1C" transform="translate(0,0)"/>
<path d="" fill="#1E1F1E" transform="translate(0,0)"/>
<path d="" fill="#2B2D2A" transform="translate(0,0)"/>
<path d="" fill="#1A1C1A" transform="translate(0,0)"/>
<path d="" fill="#1A1B19" transform="translate(0,0)"/>
<path d="" fill="#171718" transform="translate(0,0)"/>
<path d="" fill="#1C1B19" transform="translate(0,0)"/>
<path d="" fill="#1E1C1B" transform="translate(0,0)"/>
<path d="" fill="#181A18" transform="translate(0,0)"/>
<path d="" fill="#343735" transform="translate(0,0)"/>
<path d="" fill="#1E1D1E" transform="translate(0,0)"/>
<path d="" fill="#1C1C1A" transform="translate(0,0)"/>
<path d="" fill="#1A181B" transform="translate(0,0)"/>
<path d="" fill="#191917" transform="translate(0,0)"/>
<path d="" fill="#1B1B19" transform="translate(0,0)"/>
<path d="" fill="#1A1A1A" transform="translate(0,0)"/>
<path d="" fill="#363838" transform="translate(0,0)"/>
<path d="" fill="#1A1C19" transform="translate(0,0)"/>
<path d="" fill="#201E1E" transform="translate(0,0)"/>
<path d="" fill="#1D1919" transform="translate(0,0)"/>
<path d="" fill="#2D2B29" transform="translate(0,0)"/>
<path d="" fill="#1E1D1C" transform="translate(0,0)"/>
<path d="" fill="#1A1A19" transform="translate(0,0)"/>
<path d="" fill="#1C1B1B" transform="translate(0,0)"/>
<path d="" fill="#1A1917" transform="translate(0,0)"/>
<path d="" fill="#252524" transform="translate(0,0)"/>
<path d="" fill="#1F201C" transform="translate(0,0)"/>
<path d="" fill="#202122" transform="translate(0,0)"/>
<path d="" fill="#1B1C1A" transform="translate(0,0)"/>
<path d="" fill="#1A1B1B" transform="translate(0,0)"/>
<path d="" fill="#1E1E1E" transform="translate(0,0)"/>
<path d="" fill="#1F1E1E" transform="translate(0,0)"/>
<path d="" fill="#252624" transform="translate(0,0)"/>
<path d="" fill="#1E1D1B" transform="translate(0,0)"/>
<path d="" fill="#212121" transform="translate(0,0)"/>
<path d="" fill="#1D1E1E" transform="translate(0,0)"/>
<path d="" fill="#1F1F1D" transform="translate(0,0)"/>
<path d="" fill="#232525" transform="translate(0,0)"/>
<path d="" fill="#1F2020" transform="translate(0,0)"/>
<path d="" fill="#20201D" transform="translate(0,0)"/>
<path d="" fill="#343533" transform="translate(0,0)"/>
<path d="" fill="#252623" transform="translate(0,0)"/>
<path d="" fill="#201F1F" transform="translate(0,0)"/>
<path d="" fill="#1B1D1A" transform="translate(0,0)"/>
<path d="" fill="#1B1D1D" transform="translate(0,0)"/>
<path d="" fill="#3C3D3F" transform="translate(0,0)"/>
<path d="" fill="#2A2A29" transform="translate(0,0)"/>
<path d="" fill="#3B3A3B" transform="translate(0,0)"/>
<path d="" fill="#252523" transform="translate(0,0)"/>
<path d="" fill="#252621" transform="translate(0,0)"/>
<path d="" fill="#2A2B2D" transform="translate(0,0)"/>
<path d="" fill="#232326" transform="translate(0,0)"/>
<path d="" fill="#202423" transform="translate(0,0)"/>
<path d="" fill="#3E3E3E" transform="translate(0,0)"/>
<path d="" fill="#1E1F1E" transform="translate(0,0)"/>
<path d="" fill="#1D1F1C" transform="translate(0,0)"/>
<path d="" fill="#363636" transform="translate(0,0)"/>
<path d="" fill="#383737" transform="translate(0,0)"/>
<path d="" fill="#343738" transform="translate(0,0)"/>
<path d="" fill="#2F312E" transform="translate(0,0)"/>
<path d="" fill="#2C2E2D" transform="translate(0,0)"/>
<path d="" fill="#1E1D1E" transform="translate(0,0)"/>
<path d="" fill="#202120" transform="translate(0,0)"/>
<path d="" fill="#1E1F20" transform="translate(0,0)"/>
<path d="" fill="#212422" transform="translate(0,0)"/>
<path d="" fill="#232323" transform="translate(0,0)"/>
<path d="" fill="#232523" transform="translate(0,0)"/>
<path d="" fill="#444143" transform="translate(0,0)"/>
<path d="" fill="#393939" transform="translate(0,0)"/>
<path d="" fill="#242421" transform="translate(0,0)"/>
<path d="" fill="#20201E" transform="translate(0,0)"/>
<path d="" fill="#1D2120" transform="translate(0,0)"/>
<path d="" fill="#1F1E1F" transform="translate(0,0)"/>
<path d="" fill="#1F2020" transform="translate(0,0)"/>
<path d="" fill="#20201F" transform="translate(0,0)"/>
<path d="" fill="#211F22" transform="translate(0,0)"/>
<path d="" fill="#212120" transform="translate(0,0)"/>
<path d="" fill="#242425" transform="translate(0,0)"/>
<path d="" fill="#262425" transform="translate(0,0)"/>
<path d="" fill="#272627" transform="translate(0,0)"/>
<path d="" fill="#2D2E2E" transform="translate(0,0)"/>
<path d="" fill="#2D2E2F" transform="translate(0,0)"/>
<path d="" fill="#2B2E2D" transform="translate(0,0)"/>
<path d="" fill="#373735" transform="translate(0,0)"/>
<path d="" fill="#373636" transform="translate(0,0)"/>
<path d="" fill="#343333" transform="translate(0,0)"/>
</svg>
