<?xml version="1.0" encoding="UTF-8"?>
<svg version="1.1" xmlns="http://www.w3.org/2000/svg" width="711" height="568">
<path d="M0 0 C0.02505615 1.06734375 0.0501123 2.1346875 0.07592773 3.234375 C0.17161596 7.27514391 0.27141094 11.31580356 0.37231445 15.35644531 C0.41506448 17.0901429 0.4567676 18.82386668 0.49731445 20.55761719 C0.7594123 31.72751571 1.20706173 42.85410949 2 54 C3.32 53.34 4.64 52.68 6 52 C6 51.01 6 50.02 6 49 C6.66 49 7.32 49 8 49 C8.33 48.01 8.66 47.02 9 46 C9.60585938 46.0721875 10.21171875 46.144375 10.8359375 46.21875 C15.26718568 46.70959595 19.54136864 47.03069824 24 46.875 C33.43432173 46.81594321 40.62494766 50.36987687 48 56 C49.03060547 56.78310547 49.03060547 56.78310547 50.08203125 57.58203125 C53.45749455 60.29752617 55.11459801 61.69052128 56 66 C56.32097656 66.80953125 56.64195312 67.6190625 56.97265625 68.453125 C61.08254837 79.00037502 61.93262171 90.88795656 58.0390625 101.6953125 C52.83983688 113.22742948 45.94465125 120.46927021 34 125 C30.375 125.3125 30.375 125.3125 28 125 C27.67 125.66 27.34 126.32 27 127 C24.24960167 126.69073032 21.49971822 126.3777116 18.75 126.0625 C17.97269531 125.97548828 17.19539063 125.88847656 16.39453125 125.79882812 C15.64042969 125.71181641 14.88632812 125.62480469 14.109375 125.53515625 C13.41811523 125.456604 12.72685547 125.37805176 12.01464844 125.29711914 C9.96304687 124.99455017 8.00217465 124.53587616 6 124 C6 123.01 6 122.02 6 121 C4.02 120.34 2.04 119.68 0 119 C0.020625 119.804375 0.04125 120.60875 0.0625 121.4375 C0 124 0 124 -1 125 C-2.85287502 125.07226502 -4.70833878 125.0838122 -6.5625 125.0625 C-8.08037109 125.04896484 -8.08037109 125.04896484 -9.62890625 125.03515625 C-10.41136719 125.02355469 -11.19382812 125.01195312 -12 125 C-12.495 125.99 -12.495 125.99 -13 127 C-13 126.34 -13 125.68 -13 125 C-14.39025391 125.01740234 -14.39025391 125.01740234 -15.80859375 125.03515625 C-17.00613281 125.04417969 -18.20367187 125.05320312 -19.4375 125.0625 C-20.63246094 125.07410156 -21.82742188 125.08570313 -23.05859375 125.09765625 C-26 125 -26 125 -27 124 C-27.09803979 122.45061117 -27.12631858 120.89675619 -27.12698364 119.3442688 C-27.12980347 118.33753113 -27.13262329 117.33079346 -27.13552856 116.29354858 C-27.13350433 115.17976837 -27.1314801 114.06598816 -27.12939453 112.91845703 C-27.13114685 111.75270142 -27.13289917 110.5869458 -27.13470459 109.38586426 C-27.13836303 106.17919888 -27.13748924 102.97257447 -27.1343255 99.76590967 C-27.13180055 96.41473002 -27.13413993 93.06355148 -27.13571167 89.71237183 C-27.13753347 84.0815176 -27.13512731 78.45067646 -27.13037109 72.81982422 C-27.12493373 66.30730549 -27.12668726 59.79481808 -27.1321975 53.28230011 C-27.13673462 47.69671394 -27.13737607 42.11113719 -27.13475883 36.52554977 C-27.13319868 33.18707228 -27.1333868 29.84861275 -27.13629532 26.51013565 C-27.13882641 22.78684605 -27.13497446 19.0636171 -27.12939453 15.34033203 C-27.13243088 13.67573441 -27.13243088 13.67573441 -27.13552856 11.97750854 C-27.13270874 10.96513123 -27.12988892 9.95275391 -27.12698364 8.90969849 C-27.12660662 8.02884142 -27.12622959 7.14798435 -27.12584114 6.24043465 C-27 4 -27 4 -26 1 C-22.04169483 0.83265991 -18.08335144 0.66624177 -14.125 0.5 C-12.43310547 0.42845703 -12.43310547 0.42845703 -10.70703125 0.35546875 C-9.63066406 0.31035156 -8.55429687 0.26523438 -7.4453125 0.21875 C-5.95281982 0.1559082 -5.95281982 0.1559082 -4.43017578 0.09179688 C-2.95418617 0.0360432 -1.47704224 0 0 0 Z M10 47 C11 49 11 49 11 49 Z M3.6875 76.5625 C1.32683991 79.97234235 0.8429977 81.76390975 0.8125 85.875 C0.79832031 86.73867187 0.78414063 87.60234375 0.76953125 88.4921875 C1.08352386 91.90885285 2.02159022 94.01361405 4.4375 96.44921875 C10.23960465 101.04738669 13.69088799 101.59597375 21 101 C25.24851624 99.66250415 26.67268877 98.43067267 29.375 94.875 C31.48590609 90.73234679 31.72438038 86.55685796 31 82 C28.8052123 76.83801006 25.09823007 73.3173773 20 71 C13.13699728 70.34638069 8.50449155 71.22475261 3.6875 76.5625 Z " fill="#010101" transform="translate(406,83)"/>
<path d="M0 0 C0.66 0 1.32 0 2 0 C2.99 0.99 2.99 0.99 4 2 C6.42246595 2.37095708 6.42246595 2.37095708 9.2265625 2.4140625 C10.7734375 2.47207031 10.7734375 2.47207031 12.3515625 2.53125 C13.97191406 2.57765625 13.97191406 2.57765625 15.625 2.625 C16.71296875 2.66367188 17.8009375 2.70234375 18.921875 2.7421875 C21.61441165 2.83666247 24.30693757 2.92222431 27 3 C27.02332916 19.01993537 27.04097926 35.03986526 27.05181217 51.0598135 C27.05697509 58.4976451 27.06401771 65.93546617 27.07543945 73.37329102 C27.08538641 79.85381342 27.09185346 86.33432819 27.09408849 92.81485802 C27.09539558 96.24830542 27.0984813 99.681731 27.10573006 103.11517143 C27.11374416 106.94193821 27.11399113 110.76868335 27.11352539 114.59545898 C27.11712067 115.74200455 27.12071594 116.88855011 27.12442017 118.06983948 C27.1230455 119.10615509 27.12167084 120.1424707 27.12025452 121.21018982 C27.12117631 122.11631232 27.1220981 123.02243483 27.12304783 123.95601559 C27 126 27 126 26 127 C24.14630389 127.08737645 22.28932459 127.10698153 20.43359375 127.09765625 C19.30888672 127.09443359 18.18417969 127.09121094 17.02539062 127.08789062 C15.84138672 127.07951172 14.65738281 127.07113281 13.4375 127.0625 C12.24962891 127.05798828 11.06175781 127.05347656 9.83789062 127.04882812 C6.89187774 127.03699675 3.94596319 127.02051287 1 127 C0.67 126.01 0.34 125.02 0 124 C-3.90083208 122.69972264 -4.81426833 123.66197213 -8.4375 125.4375 C-16.22818476 128.82885008 -23.38683084 129.13190319 -31.5625 126.875 C-32.696875 126.58625 -33.83125 126.2975 -35 126 C-36.485 126.99 -36.485 126.99 -38 128 C-38 126.68 -38 125.36 -38 124 C-38.7321875 123.74476563 -39.464375 123.48953125 -40.21875 123.2265625 C-47.82743851 119.87104538 -53.21926355 113.22743193 -57 106 C-57.35191406 105.34515625 -57.70382812 104.6903125 -58.06640625 104.015625 C-60.14887675 99.5195799 -60.35514417 94.89227788 -60.6875 90 C-60.77741211 88.93265625 -60.77741211 88.93265625 -60.86914062 87.84375 C-61.13930412 83.87641758 -61.0447862 81.39654084 -59 78 C-57.80432808 74.48010968 -56.65087452 70.94872983 -55.51171875 67.41015625 C-52.00806664 59.50656894 -43.64334617 54.24635816 -35.75 51.1875 C-27.64437076 48.62071741 -20.36019689 48.40758155 -12 50 C-11.01 50 -10.02 50 -9 50 C-7.63461347 50.95577057 -6.30518475 51.96352976 -5 53 C-3.35 53.99 -1.7 54.98 0 56 C0 37.52 0 19.04 0 0 Z M-22 75 C-22.96679688 75.21269531 -22.96679688 75.21269531 -23.953125 75.4296875 C-27.15028323 76.32049876 -28.2266976 78.35204875 -30.02734375 81.01171875 C-31.50527496 84.0328713 -31.33524063 86.71464187 -31 90 C-30.34 90 -29.68 90 -29 90 C-29 90.66 -29 91.32 -29 92 C-29.66 92.33 -30.32 92.66 -31 93 C-28.83773717 97.20439994 -26.35892075 100.95173044 -22 103 C-16.36216661 103.73963544 -10.99750512 103.97698272 -6 101 C-6 100.34 -6 99.68 -6 99 C-5.01 99 -4.02 99 -3 99 C0.0960947 93.96884611 0.8016521 89.76572856 0 84 C-1.34746524 80.54653852 -1.34746524 80.54653852 -3 78 C-3.66 78 -4.32 78 -5 78 C-6.33333333 76.66666667 -7.66666667 75.33333333 -9 74 C-13.35771388 72.54742871 -18.53012561 71.53012561 -22 75 Z " fill="#000000" transform="translate(338,81)"/>
<path d="M0 0 C3 1 3 1 4.48632812 3.86401367 C5.01244954 5.12741403 5.52662839 6.39582833 6.03125 7.66796875 C6.44703308 8.67661736 6.44703308 8.67661736 6.87121582 9.7056427 C7.75789924 11.86216651 8.6293927 14.02444228 9.5 16.1875 C10.37356697 18.33138095 11.25023452 20.47395536 12.12878418 22.61579895 C12.67442578 23.94888797 13.21669606 25.28336367 13.75500488 26.61943054 C15.3338088 30.51007715 17.0759512 34.26839194 19 38 C20.85873821 34.07071564 22.70992725 30.13799181 24.55419922 26.2019043 C25.18266751 24.86336742 25.81318926 23.52579269 26.44580078 22.18920898 C27.35470368 20.26795662 28.2561678 18.34336622 29.15625 16.41796875 C29.70087891 15.26063232 30.24550781 14.1032959 30.80664062 12.91088867 C32.18966236 10.06170321 32.18966236 10.06170321 32 7 C33.4375 5.4375 33.4375 5.4375 35 4 C35.33 3.34 35.66 2.68 36 2 C41.61 2 47.22 2 53 2 C53.33 1.34 53.66 0.68 54 0 C54 0.66 54 1.32 54 2 C55.65 2 57.3 2 59 2 C59.33 1.34 59.66 0.68 60 0 C60 0.66 60 1.32 60 2 C62.31 2 64.62 2 67 2 C65.5801423 5.72219197 63.91491783 9.21822111 62.06640625 12.74609375 C61.49986328 13.83083984 60.93332031 14.91558594 60.34960938 16.03320312 C59.75986328 17.15662109 59.17011719 18.28003906 58.5625 19.4375 C57.39673289 21.66515398 56.23135577 23.8930121 55.06640625 26.12109375 C54.55021729 27.1052124 54.03402832 28.08933105 53.50219727 29.10327148 C52.45377278 31.12497741 51.42358041 33.15619713 50.4074707 35.19433594 C48.92687833 38.14576137 47.29846322 40.96615099 45.625 43.8125 C40.88879581 51.9609951 36.61247235 60.35107144 32.30517578 68.73168945 C31.76231934 69.78573975 31.21946289 70.83979004 30.66015625 71.92578125 C30.17168213 72.87880127 29.68320801 73.83182129 29.17993164 74.8137207 C28 77 28 77 27 78 C24.02722679 78.18025762 21.09984744 78.27812195 18.125 78.3125 C16.88169922 78.35600586 16.88169922 78.35600586 15.61328125 78.40039062 C9.53073858 78.46426224 9.53073858 78.46426224 7.06640625 76.30859375 C5.91010716 73.80539683 4.79588362 71.32714327 3.8125 68.75 C3.46832031 67.85796875 3.12414062 66.9659375 2.76953125 66.046875 C2.51558594 65.37140625 2.26164062 64.6959375 2 64 C1.34 64 0.68 64 0 64 C-0.15275391 62.49759766 -0.15275391 62.49759766 -0.30859375 60.96484375 C-0.89867838 56.83425135 -2.34053509 53.33803791 -4.0625 49.5625 C-4.48499023 48.60827148 -4.48499023 48.60827148 -4.91601562 47.63476562 C-5.60289812 46.08636949 -6.30034407 44.54266643 -7 43 C-8.9845473 45.97682096 -10.1757619 48.70595882 -11.49609375 52.0234375 C-11.97240234 53.209375 -12.44871094 54.3953125 -12.93945312 55.6171875 C-13.68883997 57.49494454 -14.43680715 59.37325755 -15.18383789 61.25195312 C-15.90935281 63.07304106 -16.64017041 64.89201357 -17.37109375 66.7109375 C-17.80349365 67.79681152 -18.23589355 68.88268555 -18.68139648 70.00146484 C-19.94630031 72.87788565 -21.15008197 75.45726107 -23 78 C-26.00893589 78.6710801 -28.23053475 78.95131245 -31.25 78.9375 C-32.40145508 78.93907104 -32.40145508 78.93907104 -33.57617188 78.94067383 C-37.55354492 78.74461213 -39.48123521 78.42053714 -42.640625 75.859375 C-45.07355291 72.36331892 -46.65653007 69.03040979 -48 65 C-48.95435049 62.94661614 -49.93662606 60.90611337 -50.9375 58.875 C-51.46214844 57.79992187 -51.98679687 56.72484375 -52.52734375 55.6171875 C-53.73508542 52.89904396 -53.73508542 52.89904396 -56 52 C-56.36381869 50.67466048 -56.69150892 49.33929912 -57 48 C-58.4871814 44.70126189 -60.1954941 41.51688306 -61.875 38.3125 C-62.32230469 37.43271484 -62.76960938 36.55292969 -63.23046875 35.64648438 C-63.66746094 34.81052734 -64.10445312 33.97457031 -64.5546875 33.11328125 C-64.95155762 32.34798096 -65.34842773 31.58268066 -65.75732422 30.79418945 C-66.95500344 28.68175671 -66.95500344 28.68175671 -70 28 C-70.0825 27.154375 -70.165 26.30875 -70.25 25.4375 C-71.15733853 21.27886509 -72.76541273 18.60417301 -75 15 C-75.66 15 -76.32 15 -77 15 C-77.28875 13.783125 -77.5775 12.56625 -77.875 11.3125 C-78.67835792 8.08185352 -79.66265409 5.05679065 -81 2 C-77.52720596 0.84240199 -75.01961176 0.97739517 -71.36328125 1.12109375 C-70.06455078 1.16943359 -68.76582031 1.21777344 -67.42773438 1.26757812 C-66.05598467 1.32409952 -64.68423993 1.38074169 -63.3125 1.4375 C-61.92905584 1.49074051 -60.54559234 1.54348078 -59.16210938 1.59570312 C-55.77451675 1.72554117 -52.38720686 1.86051375 -49 2 C-48.62190186 2.87736816 -48.24380371 3.75473633 -47.85424805 4.65869141 C-46.44144117 7.93581287 -45.02635163 11.21194458 -43.6105957 14.48779297 C-42.99995323 15.90158938 -42.38991739 17.31564798 -41.78051758 18.72998047 C-40.90087442 20.77121291 -40.01900234 22.81147019 -39.13671875 24.8515625 C-38.86784348 25.47680817 -38.5989682 26.10205383 -38.32194519 26.74624634 C-36.66271242 30.5756899 -34.87105797 34.25788406 -33 38 C-25.575 20.18 -25.575 20.18 -18 2 C-12.06 2 -6.12 2 0 2 C0 1.34 0 0.68 0 0 Z " fill="#010101" transform="translate(132,130)"/>
<path d="M0 0 C2.31843327 0.66799925 2.31843327 0.66799925 4.30078125 -0.57421875 C4.30078125 0.08578125 4.30078125 0.74578125 4.30078125 1.42578125 C4.84605469 1.54953125 5.39132812 1.67328125 5.953125 1.80078125 C12.78406245 3.66907184 17.57248986 7.16094616 22.30078125 12.42578125 C22.30078125 13.08578125 22.30078125 13.74578125 22.30078125 14.42578125 C22.96078125 14.42578125 23.62078125 14.42578125 24.30078125 14.42578125 C31.83583928 33.72220291 31.83583928 33.72220291 29.30078125 44.42578125 C27.32078125 45.08578125 25.34078125 45.74578125 23.30078125 46.42578125 C23.30078125 45.76578125 23.30078125 45.10578125 23.30078125 44.42578125 C17.69078125 44.42578125 12.08078125 44.42578125 6.30078125 44.42578125 C5.80578125 45.41578125 5.80578125 45.41578125 5.30078125 46.42578125 C5.30078125 45.76578125 5.30078125 45.10578125 5.30078125 44.42578125 C3.38380188 44.56744482 1.46720402 44.71427709 -0.44921875 44.86328125 C-1.5165625 44.94449219 -2.58390625 45.02570313 -3.68359375 45.109375 C-6.13601837 45.36668898 -8.33843166 45.74390343 -10.69921875 46.42578125 C-10.69921875 45.76578125 -10.69921875 45.10578125 -10.69921875 44.42578125 C-13.67773438 44.86523438 -13.67773438 44.86523438 -16.65625 45.3046875 C-18.69921875 45.42578125 -18.69921875 45.42578125 -21.69921875 44.42578125 C-19.95000513 48.9998119 -18.67921513 51.83408532 -14.38671875 54.42578125 C-7.70624497 56.23743516 -3.72204936 55.78736113 2.30078125 52.42578125 C2.96078125 52.42578125 3.62078125 52.42578125 4.30078125 52.42578125 C4.63078125 51.10578125 4.96078125 49.78578125 5.30078125 48.42578125 C6.29078125 48.92078125 6.29078125 48.92078125 7.30078125 49.42578125 C7.30078125 48.76578125 7.30078125 48.10578125 7.30078125 47.42578125 C9.94078125 47.42578125 12.58078125 47.42578125 15.30078125 47.42578125 C15.30078125 48.41578125 15.30078125 49.40578125 15.30078125 50.42578125 C15.98140625 50.52890625 16.66203125 50.63203125 17.36328125 50.73828125 C20.95772673 51.57953445 24.02227107 52.72347789 27.30078125 54.42578125 C28.1796875 56.27734375 28.1796875 56.27734375 28.30078125 58.42578125 C27.15625 60.4609375 27.15625 60.4609375 25.48828125 62.48828125 C24.67423828 63.49568359 24.67423828 63.49568359 23.84375 64.5234375 C23.33457031 65.15121094 22.82539062 65.77898437 22.30078125 66.42578125 C20.11588118 69.10220614 20.11588118 69.10220614 20.30078125 71.42578125 C19.51703125 71.67328125 18.73328125 71.92078125 17.92578125 72.17578125 C14.13686685 73.48230346 10.46136985 74.97624574 6.765625 76.5234375 C-6.11562101 81.2390759 -19.87228924 78.5046512 -31.9453125 72.92578125 C-35.20283425 71.15147153 -36.55310228 69.44375753 -38.69921875 66.42578125 C-39.71591187 65.0477171 -40.73702855 63.67290941 -41.76171875 62.30078125 C-42.24769531 61.63820312 -42.73367188 60.975625 -43.234375 60.29296875 C-44.63969183 58.40134381 -44.63969183 58.40134381 -46.33984375 56.90234375 C-49.96175999 52.96819335 -48.69921875 45.49378591 -48.69921875 40.42578125 C-49.35921875 40.42578125 -50.01921875 40.42578125 -50.69921875 40.42578125 C-48.37768949 29.78072024 -45.78827783 18.87169212 -38.03125 10.828125 C-36.4641745 9.25829667 -36.4641745 9.25829667 -34.69921875 6.42578125 C-33.89484375 6.11640625 -33.09046875 5.80703125 -32.26171875 5.48828125 C-29.34166875 4.27752881 -28.36499395 3.05595262 -26.69921875 0.42578125 C-25.70921875 0.75578125 -24.71921875 1.08578125 -23.69921875 1.42578125 C-21.54068049 1.10494982 -21.54068049 1.10494982 -19.19921875 0.48828125 C-12.86588803 -0.88409495 -6.37749806 -1.35671811 0 0 Z M-19.69921875 24.42578125 C-19.69921875 25.08578125 -19.69921875 25.74578125 -19.69921875 26.42578125 C-12.43921875 26.42578125 -5.17921875 26.42578125 2.30078125 26.42578125 C1.97078125 25.43578125 1.64078125 24.44578125 1.30078125 23.42578125 C-0.34921875 23.42578125 -1.99921875 23.42578125 -3.69921875 23.42578125 C-3.36921875 22.43578125 -3.03921875 21.44578125 -2.69921875 20.42578125 C-9.66732698 16.29653193 -14.6116394 18.78819333 -19.69921875 24.42578125 Z " fill="#010101" transform="translate(519.69921875,130.57421875)"/>
<path d="M0 0 C0.33 0.66 0.66 1.32 1 2 C1.9075 1.67 2.815 1.34 3.75 1 C13.82744363 -1.81843997 25.57390383 -0.43088185 34.765625 4.4765625 C43.19978449 10.00674492 47.97801832 16.45689996 51 26 C51.18820312 26.5775 51.37640625 27.155 51.5703125 27.75 C52.20499625 31.07343491 52.10389206 34.38132302 52.0625 37.75 C52.05798828 38.44738281 52.05347656 39.14476562 52.04882812 39.86328125 C52.0371002 41.57555803 52.01916653 43.28779033 52 45 C51.34 45 50.68 45 50 45 C50 45.66 50 46.32 50 47 C49.34 47 48.68 47 48 47 C48 46.34 48 45.68 48 45 C46.35369672 45.14042877 44.70795821 45.28749329 43.0625 45.4375 C42.14597656 45.51871094 41.22945312 45.59992188 40.28515625 45.68359375 C38.03840268 45.76044976 38.03840268 45.76044976 37 47 C35.33382885 47.04063832 33.66611905 47.042721 32 47 C32 46.34 32 45.68 32 45 C25.07 45 18.14 45 11 45 C11 45.66 11 46.32 11 47 C10.34 47 9.68 47 9 47 C9 46.34 9 45.68 9 45 C8.01 45 7.02 45 6 45 C5.67 45.66 5.34 46.32 5 47 C5 46.34 5 45.68 5 45 C3.515 45.495 3.515 45.495 2 46 C4.00541889 50.25148804 5.12463672 52.4397675 9.125 55 C13.74270552 56.59881847 18.31675843 56.15149009 23 55 C26.08675925 53.31631313 28.27667051 51.83906221 30.5625 49.1875 C32 48 32 48 34.375 48.1875 C40.37204067 50.04372687 45.56519 52.8977773 51 56 C50.18430627 63.25061095 44.41083644 68.21470306 38.9765625 72.65234375 C28.62490645 79.60274138 16.32407783 80.53498512 4.25 78.3125 C-7.70778148 75.14458028 -14.79068358 68.41447308 -21 58 C-26.48764983 47.36370574 -26.08507777 34.56270399 -24 23 C-22.5859375 21.4453125 -22.5859375 21.4453125 -21 20 C-19.1282451 17.33416726 -17.36178085 14.74484292 -15.9375 11.8125 C-14.88273662 9.7732908 -13.76057746 8.46714788 -12 7 C-11.34 7 -10.68 7 -10 7 C-8.24067128 5.97639056 -6.4822584 4.9500873 -4.75390625 3.875 C-3 3 -3 3 0 3 C0 2.01 0 1.02 0 0 Z M7 21 C7 21.99 7 22.98 7 24 C6.01 24 5.02 24 4 24 C3.67 24.99 3.34 25.98 3 27 C5.50100574 28.25050287 7.00343052 28.02993449 9.7890625 27.87890625 C10.73007812 27.83056641 11.67109375 27.78222656 12.640625 27.73242188 C13.62546875 27.67634766 14.6103125 27.62027344 15.625 27.5625 C16.61757813 27.51029297 17.61015625 27.45808594 18.6328125 27.40429688 C21.08884568 27.27441051 23.5444936 27.13943836 26 27 C25.34 25.68 24.68 24.36 24 23 C23.01 23.33 22.02 23.66 21 24 C21.33 23.01 21.66 22.02 22 21 C14.34446409 18.61399279 14.34446409 18.61399279 7 21 Z " fill="#010101" transform="translate(580,130)"/>
<path d="M0 0 C0.66 0 1.32 0 2 0 C2 0.99 2 1.98 2 3 C10.25 3 18.5 3 27 3 C27 43.92 27 84.84 27 127 C18.09 127 9.18 127 0 127 C-1.63996606 125.36003394 -1.12603866 123.49172232 -1.12698364 121.2303772 C-1.12980347 120.19839706 -1.13262329 119.16641693 -1.13552856 118.10316467 C-1.13350433 116.96133224 -1.1314801 115.81949982 -1.12939453 114.64306641 C-1.13202301 112.85054192 -1.13202301 112.85054192 -1.13470459 111.02180481 C-1.13836313 107.73455533 -1.13748919 104.44736843 -1.1343255 101.16012239 C-1.13180065 97.72486058 -1.1341399 94.28960151 -1.13571167 90.8543396 C-1.13753349 85.08225014 -1.13512725 79.31017346 -1.13037109 73.53808594 C-1.12493359 66.86197274 -1.12668735 60.18589011 -1.1321975 53.50977767 C-1.13673442 47.78406533 -1.13737618 42.05836219 -1.13475883 36.33264863 C-1.13319859 32.91033514 -1.13299529 29.488036 -1.13629532 26.06572342 C-1.13882618 22.2490353 -1.13497478 18.43240635 -1.12939453 14.61572266 C-1.13243088 12.90904671 -1.13243088 12.90904671 -1.13552856 11.16789246 C-1.13270874 10.13027267 -1.12988892 9.09265289 -1.12698364 8.02359009 C-1.12660662 7.12060999 -1.12622959 6.21762989 -1.12584114 5.28728676 C-1 3 -1 3 0 0 Z " fill="#000000" transform="translate(243,81)"/>
<path d="M0 0 C0.33 0.66 0.66 1.32 1 2 C4.63 2 8.26 2 12 2 C12 1.34 12 0.68 12 0 C13.32 0 14.64 0 16 0 C17.46604184 2.93208369 17.138787 5.88253038 17.12939453 9.09594727 C17.13114685 9.82615082 17.13289917 10.55635437 17.13470459 11.3086853 C17.13911436 13.72794962 17.13618849 16.14714115 17.1328125 18.56640625 C17.13348572 20.24267084 17.13445589 21.91893533 17.13571167 23.59519958 C17.1371874 27.10994394 17.13503782 30.62466289 17.13037109 34.1394043 C17.12466949 38.65466866 17.12795633 43.16987365 17.13394356 47.68513584 C17.1375488 51.14654492 17.13641083 54.6079398 17.13381577 58.06934929 C17.13314662 59.73480168 17.13397448 61.40025534 17.13629532 63.06570625 C17.13882172 65.38832157 17.13498166 67.71083926 17.12939453 70.03344727 C17.13141876 70.72801529 17.13344299 71.42258331 17.13552856 72.13819885 C17.11426368 76.88573632 17.11426368 76.88573632 16 78 C14.01242972 78.09983058 12.0213248 78.13080753 10.03125 78.1328125 C8.82082031 78.13410156 7.61039063 78.13539063 6.36328125 78.13671875 C5.08839844 78.13285156 3.81351563 78.12898438 2.5 78.125 C1.22511719 78.12886719 -0.04976562 78.13273437 -1.36328125 78.13671875 C-2.57371094 78.13542969 -3.78414062 78.13414062 -5.03125 78.1328125 C-6.15080078 78.13168457 -7.27035156 78.13055664 -8.42382812 78.12939453 C-11 78 -11 78 -12 77 C-12.09492722 74.65746218 -12.12559791 72.34453896 -12.11352539 70.00170898 C-12.11367142 69.27004517 -12.11381744 68.53838135 -12.1139679 67.7845459 C-12.11326867 65.35503216 -12.10547585 62.92559417 -12.09765625 60.49609375 C-12.0957921 58.81600486 -12.09436819 57.13591543 -12.09336853 55.45582581 C-12.08954307 51.02526357 -12.07971256 46.5947339 -12.06866455 42.16418457 C-12.05845103 37.64657024 -12.05387104 33.12895066 -12.04882812 28.61132812 C-12.03809031 19.74087107 -12.02101356 10.87043824 -12 2 C-8.04 2 -4.08 2 0 2 C0 1.34 0 0.68 0 0 Z " fill="#010101" transform="translate(212,130)"/>
<path d="M0 0 C4.34682545 4.03633792 6.34059697 8.12164675 7.0625 14 C6.21674334 20.64523088 3.78248796 25.16055877 -1.375 29.4375 C-3.625 30.125 -3.625 30.125 -5.375 30.4375 C-5.705 31.0975 -6.035 31.7575 -6.375 32.4375 C-14.81827198 31.67698469 -19.56383215 29.59130747 -25.375 23.4375 C-25.95378906 22.98890625 -26.53257812 22.5403125 -27.12890625 22.078125 C-28.375 20.4375 -28.375 20.4375 -28.37109375 17.73046875 C-27.00269882 10.12295848 -25.72126669 4.96427281 -19.3125 0.125 C-12.89863093 -3.55956308 -6.63185064 -3.07030122 0 0 Z " fill="#020202" transform="translate(225.375,89.5625)"/>
<path d="M0 0 C3.86532393 3.97900993 5.6914576 7.43834746 6.1796875 13.07421875 C6.05827898 17.76579078 4.65333405 21.52579718 1.46875 24.98828125 C-3.03175723 28.98343492 -6.47266179 30.5753193 -12.68359375 30.4609375 C-18.20540047 29.77194201 -21.85588657 27.41043611 -25.375 23.1875 C-27.80808471 18.1584008 -27.61494949 12.6163131 -26.875 7.1875 C-24.28601482 1.61122424 -20.29374649 -1.51892025 -14.5625 -3.6875 C-9.23775178 -3.93516271 -4.50995251 -2.84323093 0 0 Z " fill="#030303" transform="translate(670.875,177.8125)"/>
<path d="M0 0 C0.66 0 1.32 0 2 0 C2.02332916 16.01993537 2.04097926 32.03986526 2.05181217 48.0598135 C2.05697509 55.4976451 2.06401771 62.93546617 2.07543945 70.37329102 C2.08538641 76.85381342 2.09185346 83.33432819 2.09408849 89.81485802 C2.09539558 93.24830542 2.0984813 96.681731 2.10573006 100.11517143 C2.11374416 103.94193821 2.11399113 107.76868335 2.11352539 111.59545898 C2.11712067 112.74200455 2.12071594 113.88855011 2.12442017 115.06983948 C2.1230455 116.10615509 2.12167084 117.1424707 2.12025452 118.21018982 C2.12117631 119.11631232 2.1220981 120.02243483 2.12304783 120.95601559 C2 123 2 123 1 124 C-0.85369611 124.08737645 -2.71067541 124.10698153 -4.56640625 124.09765625 C-5.69111328 124.09443359 -6.81582031 124.09121094 -7.97460938 124.08789062 C-9.15861328 124.07951172 -10.34261719 124.07113281 -11.5625 124.0625 C-12.75037109 124.05798828 -13.93824219 124.05347656 -15.16210938 124.04882812 C-18.10812226 124.03699675 -21.05403681 124.02051287 -24 124 C-24.33 123.01 -24.66 122.02 -25 121 C-25.66 121 -26.32 121 -27 121 C-27 119.35 -27 117.7 -27 116 C-25.02 115.01 -25.02 115.01 -23 114 C-23 116.64 -23 119.28 -23 122 C-15.41 122 -7.82 122 0 122 C0 81.74 0 41.48 0 0 Z " fill="#0B0C0B" transform="translate(363,84)"/>
<path d="M0 0 C0.66 0 1.32 0 2 0 C2 40.26 2 80.52 2 122 C10.25 122 18.5 122 27 122 C27 122.66 27 123.32 27 124 C22.68751391 124.02886537 18.37505238 124.04675255 14.0625 124.0625 C12.83080078 124.07087891 11.59910156 124.07925781 10.33007812 124.08789062 C9.16025391 124.09111328 7.99042969 124.09433594 6.78515625 124.09765625 C5.15912476 124.10551147 5.15912476 124.10551147 3.50024414 124.11352539 C1 124 1 124 0 123 C-0.09597204 121.40577964 -0.12187924 119.8072955 -0.12025452 118.21018982 C-0.12162918 117.17387421 -0.12300385 116.13755859 -0.12442017 115.06983948 C-0.12082489 113.92329391 -0.11722961 112.77674835 -0.11352539 111.59545898 C-0.11367142 110.39562378 -0.11381744 109.19578857 -0.1139679 107.95959473 C-0.11338894 104.66014809 -0.10835978 101.36076336 -0.10139394 98.0613277 C-0.09515973 94.61665703 -0.09455655 91.17198562 -0.09336853 87.72731018 C-0.09025541 81.2001727 -0.08204229 74.67305189 -0.07201904 68.14592177 C-0.0608573 60.71677984 -0.0553473 53.28763714 -0.05032361 45.85848892 C-0.03985966 30.57231628 -0.0222606 15.28616028 0 0 Z " fill="#131312" transform="translate(242,84)"/>
<path d="M0 0 C0.66 0 1.32 0 2 0 C2.02312446 9.76150988 2.04091561 19.5230133 2.05181217 29.28454494 C2.05704078 33.81674094 2.06413801 38.34891827 2.07543945 42.88110352 C2.08626914 47.2512283 2.09227701 51.62133508 2.09487724 55.99147224 C2.09673135 57.66250963 2.10035168 59.33354597 2.10573006 61.00457573 C2.11294159 63.33697551 2.1139909 65.66929993 2.11352539 68.00170898 C2.11712067 68.6994191 2.12071594 69.39712921 2.12442017 70.11598206 C2.11405216 74.88594784 2.11405216 74.88594784 1 76 C-0.99964982 76.08758003 -3.0023611 76.10696576 -5.00390625 76.09765625 C-6.82631836 76.09282227 -6.82631836 76.09282227 -8.68554688 76.08789062 C-9.96494141 76.07951172 -11.24433594 76.07113281 -12.5625 76.0625 C-13.84576172 76.05798828 -15.12902344 76.05347656 -16.45117188 76.04882812 C-19.63416022 76.03699545 -22.81705762 76.02051068 -26 76 C-26 75.34 -26 74.68 -26 74 C-17.42 74 -8.84 74 0 74 C0 49.58 0 25.16 0 0 Z " fill="#111111" transform="translate(227,132)"/>
<path d="M0 0 C17.16 0 34.32 0 52 0 C52 0.66 52 1.32 52 2 C50.35 2.66 48.7 3.32 47 4 C47 3.34 47 2.68 47 2 C41.39 2 35.78 2 30 2 C29.67 2.66 29.34 3.32 29 4 C29 3.34 29 2.68 29 2 C27.08302063 2.14166357 25.16642277 2.28849584 23.25 2.4375 C21.64898438 2.55931641 21.64898438 2.55931641 20.015625 2.68359375 C17.56320038 2.94090773 15.36078709 3.31812218 13 4 C13 3.34 13 2.68 13 2 C11.01432292 2.29296875 9.02864583 2.5859375 7.04296875 2.87890625 C5 3 5 3 2 2 C2.99 4.31 3.98 6.62 5 9 C4.01 9 3.02 9 2 9 C-0.05164237 5.53785351 0 4.40610765 0 0 Z " fill="#0A0B0B" transform="translate(496,173)"/>
<path d="M0 0 C17.16 0 34.32 0 52 0 C52 0.66 52 1.32 52 2 C51.34 2 50.68 2 50 2 C50 2.66 50 3.32 50 4 C49.34 4 48.68 4 48 4 C48 3.34 48 2.68 48 2 C46.35369672 2.14042877 44.70795821 2.28749329 43.0625 2.4375 C42.14597656 2.51871094 41.22945312 2.59992188 40.28515625 2.68359375 C38.03840268 2.76044976 38.03840268 2.76044976 37 4 C35.33382885 4.04063832 33.66611905 4.042721 32 4 C32 3.34 32 2.68 32 2 C25.07 2 18.14 2 11 2 C11 2.66 11 3.32 11 4 C10.34 4 9.68 4 9 4 C9 3.34 9 2.68 9 2 C8.01 2 7.02 2 6 2 C5.67 2.66 5.34 3.32 5 4 C5 3.34 5 2.68 5 2 C3.02 2 1.04 2 -1 2 C-0.67 1.34 -0.34 0.68 0 0 Z " fill="#0B0B0B" transform="translate(580,173)"/>
<path d="M0 0 C3.37503669 1.1858237 5.64722731 2.27573689 8 5 C7.34 5.33 6.68 5.66 6 6 C3.875 5.0625 3.875 5.0625 2 4 C2.020625 4.804375 2.04125 5.60875 2.0625 6.4375 C2 9 2 9 1 10 C-0.85287502 10.07226502 -2.70833878 10.0838122 -4.5625 10.0625 C-5.57441406 10.05347656 -6.58632813 10.04445312 -7.62890625 10.03515625 C-8.80259766 10.01775391 -8.80259766 10.01775391 -10 10 C-10.33 10.66 -10.66 11.32 -11 12 C-11 11.34 -11 10.68 -11 10 C-12.39025391 10.01740234 -12.39025391 10.01740234 -13.80859375 10.03515625 C-15.00613281 10.04417969 -16.20367187 10.05320313 -17.4375 10.0625 C-18.63246094 10.07410156 -19.82742188 10.08570313 -21.05859375 10.09765625 C-24 10 -24 10 -25 9 C-25.04080783 7.00041636 -25.04254356 4.99954746 -25 3 C-24.34 3 -23.68 3 -23 3 C-23 4.65 -23 6.3 -23 8 C-15.41 8 -7.82 8 0 8 C0 5.36 0 2.72 0 0 Z " fill="#111111" transform="translate(404,198)"/>
<path d="M0 0 C0.33 0 0.66 0 1 0 C1 3.63 1 7.26 1 11 C-7.25 11 -15.5 11 -24 11 C-24.33 10.01 -24.66 9.02 -25 8 C-25.66 8 -26.32 8 -27 8 C-27 6.35 -27 4.7 -27 3 C-25.68 2.34 -24.36 1.68 -23 1 C-23 3.64 -23 6.28 -23 9 C-15.41 9 -7.82 9 0 9 C0 6.03 0 3.06 0 0 Z " fill="#111211" transform="translate(363,197)"/>
<path d="M0 0 C0.66 0 1.32 0 2 0 C-0.00287114 6.74137115 -2.75015348 12.76380803 -6 19 C-11.61 19 -17.22 19 -23 19 C-23 18.34 -23 17.68 -23 17 C-17.72 16.67 -12.44 16.34 -7 16 C-4.69 10.72 -2.38 5.44 0 0 Z " fill="#111212" transform="translate(115,189)"/>
<path d="M0 0 C0.33 0.99 0.66 1.98 1 3 C0.67 3.66 0.34 4.32 0 5 C7.92 5 15.84 5 24 5 C24 5.66 24 6.32 24 7 C15.09 7 6.18 7 -3 7 C-1 1 -1 1 0 0 Z " fill="#131413" transform="translate(500,152)"/>
<path d="M0 0 C1.65 0.33 3.3 0.66 5 1 C5 1.66 5 2.32 5 3 C0.375 5.125 0.375 5.125 -3 4 C-2.01 2.68 -1.02 1.36 0 0 Z M-5 5 C-4.34 5 -3.68 5 -3 5 C-3 5.66 -3 6.32 -3 7 C-3.99 6.67 -4.98 6.34 -6 6 C-5.67 5.67 -5.34 5.34 -5 5 Z M-9 6 C-8.01 6.33 -7.02 6.66 -6 7 C-6 7.66 -6 8.32 -6 9 C-7.65002828 10.35386936 -9.3174387 11.68678142 -11 13 C-11.33 13.66 -11.66 14.32 -12 15 C-12.66 15 -13.32 15 -14 15 C-12.50163895 11.88801935 -10.80066242 8.9465385 -9 6 Z " fill="#0B0B0B" transform="translate(493,131)"/>
<path d="M0 0 C2.86697492 1.28519565 4.97607712 2.57129254 7 5 C7 5.66 7 6.32 7 7 C7.66 7 8.32 7 9 7 C9.99 9.97 10.98 12.94 12 16 C11.34 16 10.68 16 10 16 C8.6328125 13.953125 8.6328125 13.953125 7.125 11.25 C5.08327514 7.59413663 2.95695236 4.9441517 0 2 C0 1.34 0 0.68 0 0 Z " fill="#090909" transform="translate(535,138)"/>
<path d="M0 0 C2.57737166 1.03094867 3.76284247 1.5108626 5 4.0625 C5.79455286 6.16103985 5.79455286 6.16103985 7.75 6.5625 C8.4925 6.706875 9.235 6.85125 10 7 C12.01526169 7.96887581 14.01833966 8.9641321 16 10 C16 10.66 16 11.32 16 12 C13.99538701 11.34733531 11.99620166 10.67795528 10 10 C9.154375 9.7525 8.30875 9.505 7.4375 9.25 C3.93586083 7.45428761 2.31673673 5.17723894 0 2 C0 1.34 0 0.68 0 0 Z " fill="#0E0E0E" transform="translate(564,194)"/>
<path d="M0 0 C1 3 1 3 -0.21484375 5.69921875 C-0.78332031 6.68535156 -1.35179687 7.67148438 -1.9375 8.6875 C-2.50339844 9.68136719 -3.06929687 10.67523438 -3.65234375 11.69921875 C-4.09707031 12.45847656 -4.54179687 13.21773437 -5 14 C-5.66 14 -6.32 14 -7 14 C-7.66 11.69 -8.32 9.38 -9 7 C-8.34 7 -7.68 7 -7 7 C-6.01 8.485 -6.01 8.485 -5 10 C-3.35 6.7 -1.7 3.4 0 0 Z " fill="#0B0B0B" transform="translate(156,158)"/>
<path d="M0 0 C2.64 0 5.28 0 8 0 C8 0.66 8 1.32 8 2 C5.50935112 2.68707555 3.62113708 3 1 3 C-1.18777466 4.9375006 -1.18777466 4.9375006 -3 7 C-3.99 6.67 -4.98 6.34 -6 6 C-5.01 5.67 -4.02 5.34 -3 5 C-2.26676204 2.98491642 -2.26676204 2.98491642 -2 1 C-1.34 1.33 -0.68 1.66 0 2 C0 1.34 0 0.68 0 0 Z M-8 7 C-7.01 7.495 -7.01 7.495 -6 8 C-6.99 8.495 -6.99 8.495 -8 9 C-8 8.34 -8 7.68 -8 7 Z " fill="#090A08" transform="translate(527,178)"/>
<path d="M0 0 C0.66 0.33 1.32 0.66 2 1 C1.34 2.32 0.68 3.64 0 5 C-0.99 5 -1.98 5 -3 5 C-3 6.65 -3 8.3 -3 10 C-4.32 10 -5.64 10 -7 10 C-5.76075855 5.04303419 -4.21422242 2.88341534 0 0 Z " fill="#0F0D0F" transform="translate(587,149)"/>
<path d="M0 0 C0.66 0 1.32 0 2 0 C2.6708712 1.6232687 3.33657029 3.24867578 4 4.875 C4.556875 6.23238281 4.556875 6.23238281 5.125 7.6171875 C6 10 6 10 6 12 C4.68 12 3.36 12 2 12 C1.87625 11.113125 1.7525 10.22625 1.625 9.3125 C1.05587264 6.29612498 0.23385564 3.79673946 -1 1 C-0.67 0.67 -0.34 0.34 0 0 Z " fill="#151615" transform="translate(52,131)"/>
<path d="M0 0 C0.66 0 1.32 0 2 0 C0.41037341 4.03520597 -1.28232318 8.01811282 -3 12 C-3.66 12 -4.32 12 -5 12 C-4.38331854 5.46317657 -4.38331854 5.46317657 -2.5 3.1875 C-2.005 2.795625 -1.51 2.40375 -1 2 C-0.67 1.34 -0.34 0.68 0 0 Z " fill="#090A09" transform="translate(168,132)"/>
<path d="M0 0 C0 3.54404336 -0.60989485 4.10267905 -2.875 6.6875 C-3.40867187 7.31011719 -3.94234375 7.93273437 -4.4921875 8.57421875 C-6 10 -6 10 -8 10 C-6.23915938 6.0381086 -3.9706445 1.98532225 0 0 Z " fill="#0B0B0B" transform="translate(459,191)"/>
<path d="M0 0 C0.66 0 1.32 0 2 0 C3.16063604 4.25566547 2.76173392 7.6835078 2 12 C1.34 12 0.68 12 0 12 C0 8.04 0 4.08 0 0 Z " fill="#0D0C0C" transform="translate(405,129)"/>
<path d="M0 0 C4.23429756 1.31061591 8.07407404 2.94356259 12 5 C12 5.66 12 6.32 12 7 C7.55619192 5.86726461 3.73563279 4.71682385 0 2 C0 1.34 0 0.68 0 0 Z " fill="#0B0C0B" transform="translate(486,200)"/>
<path d="M0 0 C4.38462134 0.50109958 6.8000997 1.98295115 10 5 C10 5.66 10 6.32 10 7 C6.66666667 5.33333333 3.33333333 3.66666667 0 2 C0 1.34 0 0.68 0 0 Z " fill="#161616" transform="translate(663,175)"/>
<path d="M0 0 C3.63 0 7.26 0 11 0 C11 0.66 11 1.32 11 2 C10.34 2 9.68 2 9 2 C9 2.66 9 3.32 9 4 C8.34 4 7.68 4 7 4 C7 3.34 7 2.68 7 2 C4.69 1.67 2.38 1.34 0 1 C0 0.67 0 0.34 0 0 Z " fill="#111212" transform="translate(621,173)"/>
<path d="M0 0 C0.66 0 1.32 0 2 0 C2 3.3 2 6.6 2 10 C1.34 10 0.68 10 0 10 C0 8.68 0 7.36 0 6 C-0.66 6 -1.32 6 -2 6 C-1.34 4.02 -0.68 2.04 0 0 Z " fill="#0D0E0D" transform="translate(471,165)"/>
<path d="M0 0 C2.9375 0.75 2.9375 0.75 6 2 C6.9375 4 6.9375 4 7 6 C6.67 6.66 6.34 7.32 6 8 C5.34 8 4.68 8 4 8 C4 6.68 4 5.36 4 4 C2.68 3.34 1.36 2.68 0 2 C0 1.34 0 0.68 0 0 Z " fill="#111111" transform="translate(624,183)"/>
<path d="M0 0 C3.36179774 1.44077046 5.59156268 3.24750021 8 6 C8 6.66 8 7.32 8 8 C6.68 7.34 5.36 6.68 4 6 C4 5.34 4 4.68 4 4 C2.68 3.34 1.36 2.68 0 2 C0 1.34 0 0.68 0 0 Z " fill="#0C0C0C" transform="translate(451,138)"/>
<path d="M0 0 C1.4835001 0.42257276 2.96176424 0.86356322 4.4375 1.3125 C5.67306641 1.67794922 5.67306641 1.67794922 6.93359375 2.05078125 C7.61550781 2.36402344 8.29742188 2.67726562 9 3 C9.33 3.99 9.66 4.98 10 6 C5 4 5 4 0 2 C0 1.34 0 0.68 0 0 Z " fill="#0E0E0D" transform="translate(524,132)"/>
<path d="M0 0 C2.86697492 1.28519565 4.97607712 2.57129254 7 5 C7 5.66 7 6.32 7 7 C4.13302508 5.71480435 2.02392288 4.42870746 0 2 C0 1.34 0 0.68 0 0 Z " fill="#0F0F0E" transform="translate(535,138)"/>
<path d="M0 0 C0.99 0.495 0.99 0.495 2 1 C1.01 1.495 1.01 1.495 0 2 C0 1.34 0 0.68 0 0 Z " fill="#181818" transform="translate(52,139)"/>
<path d="" fill="#000000" transform="translate(0,0)"/>
<path d="" fill="#000000" transform="translate(0,0)"/>
<path d="" fill="#000000" transform="translate(0,0)"/>
<path d="" fill="#262626" transform="translate(0,0)"/>
<path d="" fill="#000000" transform="translate(0,0)"/>
<path d="" fill="#000000" transform="translate(0,0)"/>
<path d="" fill="#000000" transform="translate(0,0)"/>
<path d="" fill="#000000" transform="translate(0,0)"/>
<path d="M0 0 C2 1 2 1 2 1 Z " fill="#000000" transform="translate(309,129)"/>
<path d="" fill="#000000" transform="translate(0,0)"/>
<path d="" fill="#000000" transform="translate(0,0)"/>
<path d="" fill="#000000" transform="translate(0,0)"/>
</svg>
